<svg xmlns="http://www.w3.org/2000/svg" width="549" height="549" viewBox="0 0 549 549">
  <g id="app" transform="translate(18.5 18.5)">
    <g id="组_2" data-name="组 2">
      <g id="组_1" data-name="组 1">
        <path id="路径_1" data-name="路径 1" d="M189.217,0H33.38A33.422,33.422,0,0,0,0,33.391V189.217a33.432,33.432,0,0,0,33.391,33.391H189.217a33.432,33.432,0,0,0,33.391-33.391V33.391A33.431,33.431,0,0,0,189.217,0Zm11.131,189.217a11.149,11.149,0,0,1-11.13,11.13H33.391a11.149,11.149,0,0,1-11.13-11.13V33.391A11.138,11.138,0,0,1,33.38,22.261H189.217a11.149,11.149,0,0,1,11.13,11.13V189.217Z" fill="#3f4346" stroke="#3f4346" stroke-width="37"/>
        <path id="路径_2" data-name="路径 2" d="M478.609,0H322.783a33.432,33.432,0,0,0-33.391,33.391V189.217a33.432,33.432,0,0,0,33.391,33.391H478.609A33.432,33.432,0,0,0,512,189.217V33.391A33.432,33.432,0,0,0,478.609,0Zm11.13,189.217a11.141,11.141,0,0,1-11.13,11.13H322.783a11.141,11.141,0,0,1-11.13-11.13V33.391a11.141,11.141,0,0,1,11.13-11.13H478.609a11.141,11.141,0,0,1,11.13,11.13Z" fill="#3f4346" stroke="#3f4346" stroke-width="37"/>
        <path id="路径_3" data-name="路径 3" d="M189.217,289.391H33.38A33.423,33.423,0,0,0,0,322.783V478.609A33.432,33.432,0,0,0,33.391,512H189.217a33.432,33.432,0,0,0,33.391-33.391V322.783A33.431,33.431,0,0,0,189.217,289.391Zm11.131,189.218a11.141,11.141,0,0,1-11.13,11.13H33.391a11.141,11.141,0,0,1-11.13-11.13V322.783a11.131,11.131,0,0,1,11.119-11.13H189.217a11.141,11.141,0,0,1,11.13,11.13V478.609Z" fill="#3f4346" stroke="#3f4346" stroke-width="37"/>
        <path id="路径_4" data-name="路径 4" d="M478.609,289.391H322.783a33.432,33.432,0,0,0-33.391,33.391V478.608A33.432,33.432,0,0,0,322.783,512H478.609A33.432,33.432,0,0,0,512,478.608V322.783A33.433,33.433,0,0,0,478.609,289.391Zm11.13,189.218a11.134,11.134,0,0,1-11.13,11.13H322.783a11.134,11.134,0,0,1-11.13-11.13V322.783a11.134,11.134,0,0,1,11.13-11.13H478.609a11.134,11.134,0,0,1,11.13,11.13Z" fill="#3f4346" stroke="#3f4346" stroke-width="37"/>
      </g>
    </g>
  </g>
</svg>
