<?xml version="1.0" encoding="UTF-8"?>
<svg xmlns="http://www.w3.org/2000/svg" xmlns:xlink="http://www.w3.org/1999/xlink" xmlns:svgjs="http://svgjs.com/svgjs" version="1.1" width="512" height="512" x="0" y="0" viewBox="0 0 512 512" style="enable-background:new 0 0 512 512" xml:space="preserve" class="">
  <g>
    <g xmlns="http://www.w3.org/2000/svg">
      <path d="m256.122 143.499h99.993c7.024 36.226 38.969 63.668 77.217 63.668 43.378 0 78.668-35.291 78.668-78.668s-35.291-78.669-78.668-78.669c-38.248 0-70.192 27.443-77.217 63.668h-99.998c-7.454-63.812-61.838-113.498-127.618-113.498-70.855 0-128.499 57.644-128.499 128.499 0 71.077 57.423 128.499 128.499 128.499 28.982 0 57.034-9.713 79.685-27.6l74.51 74.51c-14.403 18.202-23.983 40.381-26.811 64.595h-99.998c-7.024-36.226-38.969-63.668-77.217-63.668-43.377-.002-78.668 35.289-78.668 78.666s35.291 78.668 78.668 78.668c38.248 0 70.192-27.443 77.217-63.668h99.993c7.494 64.402 61.972 113.499 127.623 113.499 71.078 0 128.499-57.424 128.499-128.499 0-70.854-57.644-128.499-128.499-128.499-30.034 0-57.692 10.36-79.595 27.691l-74.517-74.517c14.466-18.331 23.932-40.605 26.733-64.677zm177.21-63.669c26.836 0 48.668 21.833 48.668 48.668s-21.833 48.668-48.668 48.668-48.668-21.833-48.668-48.668 21.832-48.668 48.668-48.668zm-403.332 48.669c0-54.313 44.186-98.499 98.499-98.499s98.499 44.186 98.499 98.499c0 24.301-8.842 46.88-23.809 64.287-5.306-19.725-18.228-36.351-35.411-46.526 6.581-8.442 10.516-19.042 10.516-30.55 0-27.457-22.338-49.794-49.794-49.794s-49.794 22.338-49.794 49.794c0 11.508 3.935 22.108 10.516 30.55-17.183 10.175-30.105 26.801-35.411 46.526-14.969-17.407-23.811-39.986-23.811-64.287zm78.704-12.79c0-10.915 8.88-19.794 19.794-19.794s19.794 8.88 19.794 19.794-8.88 19.794-19.794 19.794-19.794-8.879-19.794-19.794zm-27.552 99.228c0-30.369 22.751-49.433 47.346-49.433 24.362 0 47.346 18.796 47.346 49.433-30.005 16.395-65.848 15.76-94.692 0zm-2.484 217.233c-26.835 0-48.668-21.833-48.668-48.669s21.833-48.668 48.668-48.668 48.668 21.833 48.668 48.668-21.832 48.669-48.668 48.669zm257.487 37.77c0-30.364 22.746-49.428 47.337-49.433h.01s.006 0 .01 0c24.349.005 47.337 18.79 47.337 49.432-29.24 15.977-65.08 16.182-94.694.001zm27.552-99.228c0-10.915 8.88-19.794 19.794-19.794s19.794 8.88 19.794 19.794c0 10.913-8.877 19.791-19.788 19.795-.002 0-.004 0-.006 0s-.004 0-.006 0c-10.911-.004-19.788-8.882-19.788-19.795zm118.293 12.789c0 24.301-8.842 46.88-23.809 64.287-5.306-19.725-18.228-36.351-35.41-46.526 6.581-8.442 10.516-19.042 10.516-30.55 0-27.457-22.338-49.794-49.794-49.794s-49.794 22.338-49.794 49.794c0 11.508 3.935 22.108 10.516 30.55-17.182 10.175-30.105 26.801-35.41 46.526-14.967-17.407-23.809-39.986-23.809-64.287 0-54.313 44.186-98.499 98.499-98.499s98.495 44.187 98.495 98.499z" fill="#3f4346" data-original="#000000" style="" class=""/>
    </g>
  </g>
</svg>
