<svg id="_投資Sci__Fi_IPOE-多-lightgrey" data-name="@投資Sci__Fi・$IPOE-多-lightgrey" xmlns="http://www.w3.org/2000/svg" width="100%" viewBox="0 0 140.5 20" preserveAspectRatio="xMidYMid meet">
  <g id="组_1" data-name="组 1">
    <rect id="矩形_3" data-name="矩形 3" width="115" height="19" rx="2" transform="translate(0.5 0.5)" fill="#fcfcfc"/>
    <rect id="矩形_4" data-name="矩形 4" width="19" height="19" rx="2" transform="translate(121.5 0.5)" fill="#4d8b17"/>
    <path id="路径_2" data-name="路径 2" d="M0,0H.5V5H0Z" transform="translate(121 7.5)" fill="none"/>
    <path id="路径_1" data-name="路径 1" d="M121.5,6.5l-3,3v1l3,3" fill="#4d8b17"/>
  </g>
  <g id="组_2" data-name="组 2">
    <path id="llink" d="M2,0H113a2,2,0,0,1,2,2V17a2,2,0,0,1-2,2H2a2,2,0,0,1-2-2V2A2,2,0,0,1,2,0Z" transform="translate(0.5 0.5)" fill="#f2f2f2" stroke="#d5d5d5" stroke-width="1"/>
    <text id="_投資Sci_Fi_IPOE" data-name="@投資Sci_Fi・$IPOE" transform="translate(57.5 15)" fill="#fff" font-size="11" font-family=" Helvetica Neue" ><tspan x="-52.668" y="0" >@</tspan><tspan y="0" font-family=" PingFang SC" >投資</tspan><tspan y="0">Sci_Fi</tspan><tspan y="0" font-family="PingFangSC-Semibold, PingFang SC" font-weight="600">・</tspan><tspan y="0" font-weight='600'>$IPOE</tspan></text>
    <text id="_投資Sci_Fi_IPOE-2" data-name="@投資Sci_Fi・$IPOE" transform="translate(57.5 14)" fill="#333" font-size="11" font-family=" Helvetica Neue" ><tspan x="-52.668" y="0">@</tspan><tspan y="0" font-family=" PingFang SC" >投資</tspan><tspan y="0">Sci_Fi</tspan><tspan y="0" font-family="PingFangSC-Semibold, PingFang SC" font-weight="600">・</tspan><tspan y="0" font-weight='600'>$IPOE</tspan></text>
    <text id="rlink" transform="translate(130.5 14)" fill="#fff" font-size="11" font-family="PingFangSC-Semibold, PingFang SC" font-weight="600"><tspan x="-5.5" y="0">多</tspan></text>
  </g>
</svg>
