<svg xmlns="http://www.w3.org/2000/svg" width="490.873" height="490.866" viewBox="0 0 490.873 490.866">
  <g id="edit" transform="translate(6.5 6.496)">
    <g id="组_2" data-name="组 2">
      <g id="组_1" data-name="组 1">
        <path id="路径_1" data-name="路径 1" d="M392.533,238.937A17.067,17.067,0,0,0,375.466,256V426.67A17.067,17.067,0,0,1,358.4,443.737H51.2A17.067,17.067,0,0,1,34.133,426.67V85.337A17.067,17.067,0,0,1,51.2,68.27H256a17.066,17.066,0,1,0,0-34.133H51.2A51.2,51.2,0,0,0,0,85.337V426.67a51.2,51.2,0,0,0,51.2,51.2H358.4a51.2,51.2,0,0,0,51.2-51.2V256A17.067,17.067,0,0,0,392.533,238.937Z" stroke-width="13"/>
      </g>
    </g>
    <g id="组_4" data-name="组 4">
      <g id="组_3" data-name="组 3">
        <path id="路径_2" data-name="路径 2" d="M458.742,19.142a65.326,65.326,0,0,0-92.4.011l-224.8,224.784a17.254,17.254,0,0,0-4.113,6.673l-34.133,102.4a17.068,17.068,0,0,0,16.179,22.46,17.336,17.336,0,0,0,5.393-.87l102.4-34.133a17.072,17.072,0,0,0,6.673-4.13l224.8-224.8A65.333,65.333,0,0,0,458.742,19.142ZM434.6,87.419,212.736,309.286l-66.287,22.135,22.067-66.2L390.468,43.353A31.184,31.184,0,1,1,434.6,87.419Z"  stroke-width="13"/>
      </g>
    </g>
  </g>
</svg>
