<?xml version="1.0" encoding="iso-8859-1"?>
<!-- Generator: Adobe Illustrator 19.0.0, SVG Export Plug-In . SVG Version: 6.00 Build 0)  -->
<svg version="1.1" id="Capa_1" xmlns="http://www.w3.org/2000/svg" xmlns:xlink="http://www.w3.org/1999/xlink" x="0px" y="0px"
	 viewBox="0 0 384 384" style="enable-background:new 0 0 384 384;" xml:space="preserve">
<g>
	<g>
		<path d="M379.312,84.688l-79.992-80c-3-3-7.072-4.688-11.32-4.688H168c-8.832,0-16,7.168-16,16c0,8.832,7.168,16,16,16h56v96H104
			V16c0-8.832-7.168-16-16-16H48C21.528,0,0,21.528,0,48v288c0,26.472,21.528,48,48,48h40h208h40c26.472,0,48-21.528,48-48V96
			C384,91.76,382.312,87.688,379.312,84.688z M280,352H104v-88h176V352z M352,336c0,8.824-7.176,16-16,16h-24V248
			c0-8.832-7.168-16-16-16H88c-8.832,0-16,7.168-16,16v104H48c-8.824,0-16-7.176-16-16V48c0-8.824,7.176-16,16-16h24v112
			c0,8.832,7.168,16,16,16h152c8.832,0,16-7.168,16-16V32h25.376L352,102.624V336z"/>
	</g>
</g>
<g>
	<g>
		<path d="M136,56c-8.832,0-16,7.168-16,16v16c0,8.832,7.168,16,16,16c8.832,0,16-7.168,16-16V72C152,63.168,144.832,56,136,56z"/>
	</g>
</g>
<g>
</g>
<g>
</g>
<g>
</g>
<g>
</g>
<g>
</g>
<g>
</g>
<g>
</g>
<g>
</g>
<g>
</g>
<g>
</g>
<g>
</g>
<g>
</g>
<g>
</g>
<g>
</g>
<g>
</g>
</svg>
